# xmcd CD database file
#
# Track frame offsets:
#	150
#	16239
#	32915
#	56258
#	79024
#	99462
#	119202
#	131097
#	152012
#	168207
#	186194
#	209761
#	226906
#
# Disc length: 3237 seconds
#
# Revision: 1
# Processed by: cddbd v1.5.2PL0 Copyright (c) Steve Scherf et al.
# Submitted via: CDex 1.70beta2
#
DISCID=ab0ca30d
DTITLE=Firewater - The Golden Hour
DYEAR=2008
DGENRE=Country
TTITLE0=Borneo
TTITLE1=This Is My Life
TTITLE2=Some Kind of Kindness
TTITLE3=Six Forty Five
TTITLE4=A Place Not So Unkind
TTITLE5=Paradise
TTITLE6=Banghra Bros
TTITLE7=Electric City
TTITLE8=Hey Clown
TTITLE9=Already Gone
TTITLE10=Feels Like The End of the World
TTITLE11=Weird To Be Back
TTITLE12=Three Legged Dog
EXTD=YEAR: 2008
EXTT0=
EXTT1=
EXTT2=
EXTT3=
EXTT4=
EXTT5=
EXTT6=
EXTT7=
EXTT8=
EXTT9=
EXTT10=
EXTT11=
EXTT12=
PLAYORDER=
